<svg xmlns="http://www.w3.org/2000/svg" version="1.1" xmlns:xlink="http://www.w3.org/1999/xlink" width="512" height="512" x="0" y="0" viewBox="0 0 512.009 512.009" style="enable-background:new 0 0 512 512" xml:space="preserve" class=""><g><path d="M495.626 239.635h-17.12c-8.025-109.987-96.13-198.089-206.118-206.11V16.387c0-9.052-7.331-16.383-16.383-16.383s-16.383 7.331-16.383 16.383v17.137c-109.995 8.022-198.103 96.125-206.12 206.12H16.383C7.331 239.644 0 246.983 0 256.027c0 9.044 7.331 16.374 16.383 16.374h17.12c8.022 109.991 96.134 198.097 206.119 206.119v17.102c0 9.052 7.331 16.383 16.383 16.383 9.043 0 16.374-7.331 16.383-16.374V478.52c109.987-8.021 198.102-96.124 206.119-206.119h17.119c9.044 0 16.383-7.331 16.383-16.383 0-9.053-7.331-16.383-16.383-16.383zm-50.005 0h-58.646c-7.425-59.708-54.881-107.167-114.588-114.596V66.391c91.907 7.874 165.358 81.337 173.234 173.244zM66.368 272.401h58.673c7.421 59.709 54.875 107.171 114.58 114.604v58.649c-91.917-7.869-165.384-81.329-173.253-173.253zm206.019 173.251v-58.649c47.094-5.798 87.633-36.359 105.913-81.171 3.417-8.378-.604-17.936-8.981-21.353-8.413-3.452-17.945.612-21.353 8.981-13.213 32.408-41.906 54.897-75.578 60.453V310.66c0-9.052-7.331-16.383-16.383-16.383s-16.383 7.331-16.383 16.383v43.24c-41.605-6.955-74.53-39.889-81.47-81.5h43.202c9.044 0 16.383-7.322 16.383-16.374s-7.331-16.383-16.383-16.383H66.369c7.874-91.918 81.341-165.379 173.252-173.252v58.651c-47.09 5.801-87.624 36.361-105.895 81.17-3.417 8.378.604 17.936 8.981 21.353 8.413 3.443 17.945-.612 21.353-8.981 13.211-32.402 41.896-54.889 75.561-60.45v43.215c0 9.052 7.331 16.383 16.383 16.383 9.043 0 16.374-7.331 16.383-16.374v-43.217c41.611 6.948 74.542 39.882 81.487 81.494h-43.218c-9.052 0-16.383 7.331-16.383 16.383s7.331 16.383 16.383 16.383h134.967c-7.869 91.911-81.327 165.374-173.236 173.251z" fill="#000000" opacity="1" data-original="#000000"></path><path d="M240.296 240.291c-4.074 4.171-6.47 9.86-6.47 15.708 0 5.866 2.387 11.546 6.47 15.717 4.171 4.162 9.86 6.47 15.717 6.47 5.849 0 11.528-2.307 15.7-6.47 4.074-4.171 6.479-9.86 6.479-15.717 0-5.857-2.396-11.537-6.479-15.708-8.254-8.253-23.163-8.164-31.417 0z" fill="#000000" opacity="1" data-original="#000000"></path></g></svg>